<svg width="698" height="419" viewBox="0 0 698 419" fill="none" xmlns="http://www.w3.org/2000/svg">
<g clip-path="url(#clip0_1_4)">
<rect width="698" height="419" fill="#3B82F6"/>
<g opacity="0.6" filter="url(#filter0_i_1_4)">
<path d="M-83.6492 781.61C-10.0016 781.61 49.7015 721.907 49.7015 648.26V536.226V412.333C49.7015 301.876 139.245 212.333 249.702 212.333H338.184C413.939 212.333 475.351 150.922 475.351 75.1666C475.351 -0.588417 536.762 -62 612.517 -62H1238.71V456.817V971.369H-217V914.961C-217 841.314 -157.297 781.61 -83.6492 781.61Z" fill="#2563EB"/>
</g>
<g opacity="0.6" filter="url(#filter1_i_1_4)">
<path d="M247.513 591.657C296.609 591.657 337.27 551.857 337.27 502.762V449.998C337.27 393.689 381.204 347.162 437.42 343.936C493.636 340.71 537.571 294.183 537.571 237.874V226.013C537.571 160.402 590.759 107.214 656.369 107.214H798.292C841.952 107.214 877.346 71.8209 877.346 28.1608C877.346 -15.4993 912.739 -50.8928 956.399 -50.8928H1011.12C1054.78 -50.8928 1090.18 -86.2863 1090.18 -129.946C1090.18 -173.607 1125.57 -209 1169.23 -209H1343V365.137V724H156V682.292C156 632.235 197.457 591.657 247.513 591.657Z" fill="#60A5FA"/>
</g>
</g>
<defs>
<filter id="filter0_i_1_4" x="-217" y="-62" width="1459.71" height="1037.37" filterUnits="userSpaceOnUse" color-interpolation-filters="sRGB">
<feFlood flood-opacity="0" result="BackgroundImageFix"/>
<feBlend mode="normal" in="SourceGraphic" in2="BackgroundImageFix" result="shape"/>
<feColorMatrix in="SourceAlpha" type="matrix" values="0 0 0 0 0 0 0 0 0 0 0 0 0 0 0 0 0 0 127 0" result="hardAlpha"/>
<feOffset dx="4" dy="4"/>
<feGaussianBlur stdDeviation="25"/>
<feComposite in2="hardAlpha" operator="arithmetic" k2="-1" k3="1"/>
<feColorMatrix type="matrix" values="0 0 0 0 0 0 0 0 0 0 0 0 0 0 0 0 0 0 0.25 0"/>
<feBlend mode="normal" in2="shape" result="effect1_innerShadow_1_4"/>
</filter>
<filter id="filter1_i_1_4" x="156" y="-209" width="1191" height="937" filterUnits="userSpaceOnUse" color-interpolation-filters="sRGB">
<feFlood flood-opacity="0" result="BackgroundImageFix"/>
<feBlend mode="normal" in="SourceGraphic" in2="BackgroundImageFix" result="shape"/>
<feColorMatrix in="SourceAlpha" type="matrix" values="0 0 0 0 0 0 0 0 0 0 0 0 0 0 0 0 0 0 127 0" result="hardAlpha"/>
<feOffset dx="4" dy="4"/>
<feGaussianBlur stdDeviation="25"/>
<feComposite in2="hardAlpha" operator="arithmetic" k2="-1" k3="1"/>
<feColorMatrix type="matrix" values="0 0 0 0 0 0 0 0 0 0 0 0 0 0 0 0 0 0 0.25 0"/>
<feBlend mode="normal" in2="shape" result="effect1_innerShadow_1_4"/>
</filter>
<clipPath id="clip0_1_4">
<rect width="698" height="419" fill="white"/>
</clipPath>
</defs>
</svg>
