<svg width="698" height="419" viewBox="0 0 698 419" fill="none" xmlns="http://www.w3.org/2000/svg">
<g clip-path="url(#clip0_1_4)">
<rect width="698" height="419" fill="white"/>
<g opacity="0.6" filter="url(#filter0_i_1_4)">
<path d="M195.839 245.385C265.338 245.385 321.678 189.045 321.678 119.546V-123.893C321.678 -234.349 411.221 -323.892 521.678 -323.892H586.184C661.939 -323.892 723.351 -385.304 723.351 -461.059V-461.059C723.351 -536.814 784.762 -598.226 860.517 -598.226H1443.71V-79.4089V435.144H70V371.224C70 301.725 126.34 245.385 195.839 245.385V245.385Z" fill="#79ACFF" fill-opacity="0.6"/>
</g>
<g opacity="0.6" filter="url(#filter1_i_1_4)">
<path d="M271.113 458.003C320.2 458.003 359.994 418.21 359.994 369.122V369.122V349.13C359.994 274.73 418.602 213.534 492.933 210.321L513.003 209.454C576.113 206.726 625.873 154.769 625.873 91.6V91.6C625.873 26.4505 678.687 -26.3636 743.837 -26.3636H997.849C1041.5 -26.3636 1076.89 -61.7516 1076.89 -105.405V-105.405C1076.89 -149.058 1112.28 -184.446 1155.93 -184.446H1280.36C1324.01 -184.446 1359.4 -219.834 1359.4 -263.487V-263.487C1359.4 -307.141 1394.79 -342.529 1438.44 -342.529H1695V231.518V590.326H119.376V578.312C119.376 511.867 173.24 458.003 239.685 458.003H271.113Z" fill="#3B82F6" fill-opacity="0.5"/>
</g>
</g>
<defs>
<filter id="filter0_i_1_4" x="70" y="-598.226" width="1377.71" height="1037.37" filterUnits="userSpaceOnUse" color-interpolation-filters="sRGB">
<feFlood flood-opacity="0" result="BackgroundImageFix"/>
<feBlend mode="normal" in="SourceGraphic" in2="BackgroundImageFix" result="shape"/>
<feColorMatrix in="SourceAlpha" type="matrix" values="0 0 0 0 0 0 0 0 0 0 0 0 0 0 0 0 0 0 127 0" result="hardAlpha"/>
<feOffset dx="4" dy="4"/>
<feGaussianBlur stdDeviation="25"/>
<feComposite in2="hardAlpha" operator="arithmetic" k2="-1" k3="1"/>
<feColorMatrix type="matrix" values="0 0 0 0 0 0 0 0 0 0 0 0 0 0 0 0 0 0 0.25 0"/>
<feBlend mode="normal" in2="shape" result="effect1_innerShadow_1_4"/>
</filter>
<filter id="filter1_i_1_4" x="119.376" y="-342.529" width="1579.62" height="936.854" filterUnits="userSpaceOnUse" color-interpolation-filters="sRGB">
<feFlood flood-opacity="0" result="BackgroundImageFix"/>
<feBlend mode="normal" in="SourceGraphic" in2="BackgroundImageFix" result="shape"/>
<feColorMatrix in="SourceAlpha" type="matrix" values="0 0 0 0 0 0 0 0 0 0 0 0 0 0 0 0 0 0 127 0" result="hardAlpha"/>
<feOffset dx="4" dy="4"/>
<feGaussianBlur stdDeviation="25"/>
<feComposite in2="hardAlpha" operator="arithmetic" k2="-1" k3="1"/>
<feColorMatrix type="matrix" values="0 0 0 0 0 0 0 0 0 0 0 0 0 0 0 0 0 0 0.25 0"/>
<feBlend mode="normal" in2="shape" result="effect1_innerShadow_1_4"/>
</filter>
<clipPath id="clip0_1_4">
<rect width="698" height="419" fill="white"/>
</clipPath>
</defs>
</svg>
