<?xml version="1.0" encoding="utf-8"?>
<!-- Generator: Adobe Illustrator 25.2.3, SVG Export Plug-In . SVG Version: 6.00 Build 0)  -->
<svg version="1.1" id="Layer_1" xmlns="http://www.w3.org/2000/svg" xmlns:xlink="http://www.w3.org/1999/xlink" x="0px" y="0px"
	 viewBox="0 0 848 537" style="enable-background:new 0 0 848 537;" xml:space="preserve">
<style type="text/css">
	.st0{fill:#3366FF;fill-opacity:0.06;}
	.st1{opacity:0.8;fill:#3366FF;fill-opacity:0.07}
	.st2{fill:#3366FF;}
</style>
<path class="st0" d="M0,356.3c65.9-20.7,136.9-17.4,200.6,9.5l23.4,9.8c122.8,51.7,263.6,31.7,367.5-52.4l36.9-29.9
	c61.9-50.1,140.8-73.6,219.6-65.4v309H0V356.3z"/>
<path class="st1" d="M339.3,0C508.9,0,678.4,0,848,0v480.7c-24.5-75.7-59.7-39.2-90-82.9c-17.3-25-17.7-57.5-48.5-83.4
	c-43.8-36.9-36.9-95.9-69.5-125c-54.1-48.4-103.1-15.1-154.9-69.2c-25.6-26.7-20.9-42.5-51.5-71.2C402.1,19.3,365.8,6.3,339.3,0z"/>
<path class="st2" d="M956.1,83.1"/>
<path class="st2" d="M-54.1-81.5"/>
</svg>
