<svg width="140" height="107" viewBox="0 0 140 107" fill="none" xmlns="http://www.w3.org/2000/svg">
<g clip-path="url(#clip0_1_2)">
<rect x="9" y="44" width="14" height="48" rx="3" fill="#3B82F6"/>
<rect x="37" y="44" width="12" height="48" rx="3" fill="#BFDBFE"/>
<rect x="117" y="44" width="14" height="48" rx="3" fill="#3B82F6"/>
<rect x="91" y="44" width="12" height="48" rx="3" fill="#BFDBFE"/>
<rect x="64" y="44" width="12" height="48" rx="3" fill="#BFDBFE"/>
<path d="M140 42V32.8985C140 32.1566 139.589 31.4757 138.933 31.1295L87.938 4.23101C87.6503 4.07929 87.33 4 87.0049 4H70H52.4993C52.1715 4 51.8486 4.0806 51.5593 4.23472L1.05991 31.1279C0.407578 31.4753 0 32.1541 0 32.8931V42C0 43.1046 0.895426 44 2 44H138C139.105 44 140 43.1046 140 42Z" fill="white"/>
<path d="M140 39V30.6272C140 29.6548 139.529 28.7427 138.735 28.1801L101.599 1.84306C99.9081 0.644044 97.8867 0 95.814 0H70.5H45.1238C43.0897 0 41.104 0.620277 39.4317 1.77808L1.29237 28.1822C0.482976 28.7426 0 29.6643 0 30.6488V39C0 40.6569 1.34315 42 3 42H137C138.657 42 140 40.6569 140 39Z" fill="#334155"/>
<path d="M0 94C0 92.8954 0.895431 92 2 92H138C139.105 92 140 92.8954 140 94V105C140 106.105 139.105 107 138 107H2C0.895426 107 0 106.105 0 105V94Z" fill="white"/>
<path d="M0 97C0 95.3431 1.34315 94 3 94H137C138.657 94 140 95.3431 140 97V104C140 105.657 138.657 107 137 107H3C1.34315 107 0 105.657 0 104V97Z" fill="#334155"/>
<rect x="95" y="48" width="4" height="40" rx="2" fill="#60A5FA"/>
<rect x="68" y="48" width="4" height="40" rx="2" fill="#60A5FA"/>
<rect x="41" y="48" width="4" height="40" rx="2" fill="#60A5FA"/>
<rect x="51" y="8" width="39" height="26" rx="5" fill="#BFDBFE"/>
<rect x="72" y="21.4142" width="2" height="10.844" rx="0.4" transform="rotate(-45 72 21.4142)" fill="#93C5FD"/>
<path d="M79 28.4142L80.4142 27L80.901 27.4868C81.0572 27.643 81.0572 27.8962 80.901 28.0525L80.0525 28.901C79.8962 29.0572 79.643 29.0572 79.4868 28.901L79 28.4142Z" fill="#60A5FA"/>
<rect x="72.4179" y="21.8321" width="2" height="1.32581" transform="rotate(-45 72.4179 21.8321)" fill="#60A5FA"/>
<rect x="62" y="19.0533" width="12.8033" height="9.64734" rx="1" transform="rotate(-45 62 19.0533)" fill="#93C5FD"/>
<rect x="58" y="29" width="13" height="2" rx="0.2" fill="#93C5FD"/>
<path d="M60 28.2C60 28.0895 60.0895 28 60.2 28H68.8C68.9105 28 69 28.0895 69 28.2V29H60V28.2Z" fill="#60A5FA"/>
</g>
<defs>
<clipPath id="clip0_1_2">
<rect width="140" height="107" fill="white"/>
</clipPath>
</defs>
</svg>
