<svg width="1179" height="796" viewBox="0 0 1179 796" fill="none" xmlns="http://www.w3.org/2000/svg">
  <style>
#hammer,#hammer_stand,#cloud_inner,#cloud_outer,#printer {
    visibility: hidden;
  }
  #form {
    animation: form-in 1s forwards, form-out 1s 8s forwards;
  }
  #value_1{
    transform: translateX(-200%);
    animation: fly-in 1s forwards;
    animation-delay: .4s
  }
  #value_2 {
    transform: translateX(10000%);              
    animation: fly-in-reverse 1s forwards 1s;
    animation-delay: .5s;
  }
  #phone_ok_circle {
    visibility: hidden;
  }
  #value_3 {
    transform: translateX(-200%);
    animation: fly-in 1s forwards;
    animation-delay: 0.4s;
  }
  #value_4 {
    transform: translateX(-200%);
    animation: fly-in 1s forwards;
    animation-delay: 0.6s;
  }
  #value_5 {
    visibility: hidden;
  }


  #phone {
    transform: translateX(-200%);
    
    animation: phone-in 2s 8s forwards, phone-out 2s 16s forwards;
  }
  #terminal {
    transform: translateY(200%);
    animation: terminal-in 2s 8.5s forwards, terminal-out 2s 16.5s forwards;
  }
  #terminal_back {
    transform: translateY(200%);
    animation: terminal-in 2s 8.5s forwards, terminal-out 2s 16.5s forwards;
  }
  #card { 
    transform: translateY(-200%);
    animation: card-in 2s 10s forwards, card-out 0.5s 13.5s forwards;
  }
  #terminal_ok_1 {
    font-size: 0px;
    animation: phone-ok 0.25s 14s forwards;
  }
  #terminal_ok_2 {
    font-size: 0px;
    animation: phone-ok 0.25s 14.25s forwards;

  }

  #phone_ok_1 {
    font-size: 0px;
    animation: phone-ok 0.25s forwards;
    animation-delay: 10s;

  }
  #phone_ok_2 {
    font-size: 0px;
    animation: phone-ok 0.25s forwards;
    animation-delay: 10.3s;
  }

  @keyframes card-in {
    0% {
      transform: translateY(-200%);
    }
    100% {
      transform: translateX(0%);
    }
  }
  @keyframes card-out {
    0% {
      transform: translateY(0%);
    }
    100% {
      transform: translateY(200%);
    } 
  }
  @keyframes phone-in {
    0% {
      transform: translateY(-200%);
    }
    100% {
      transform: translateY(0);
    }
  }
  @keyframes phone-out {
    0% {
      transform: translateY(0);
    }
    100% {
      transform: translateY(200%);
    }
  }
  @keyframes terminal-in {
    0% {
      transform: translateY(200%);
    }
    100% {
      transform: translateY(0);
    }
  }
  @keyframes terminal-out {
    0% {
      transform: translateY(0);
    }
    100% {
      transform: translateY(200%);
    }
  }

  @keyframes phone-ok {
    0% {
      font-size: 0px;
    }
    100% {
      font-size: 16px;
    }
  }
  @keyframes fly-in {
    0% {
      transform: translateX(-200%);
    }   
    100% {
      transform: translateX(0);
    }
  }                                 
  @keyframes terminal-in-out {
    0% {
      transform: translateY(200%);
    }   
    20% {
      transform: translateY(0);
    }
    80% {
      transform: translateY(0);
    }
    100% {
      transform: translateY(200%);
    }
  }
  @keyframes form-in {
    0% {
      transform: translateX(-200%);
    }   
    100% {
      transform: translateX(0%);
    }
  }
  @keyframes form-out {
    0% {
      transform: translateY(0%);
    }   
    100% {
      transform: translateY(-200%);
    }
  }








  #progress_bar{
    font-size: 0px;
    animation: progress-bar 2s forwards; 
    animation-delay: 0.5s;
  }

  @keyframes progress-bar {
    0% {
      font-size: 0;
    }
    100% {
      font-size: 16px;
    }
  }

  @keyframes fly-in {
    0% {
      transform: translateX(-200%);
    }
    100% {
      transform: translateX(0);
    }
  }
  @keyframes fly-in-reverse {
    0% {
      transform: translateX(200%);
    }
    100% {
      transform: translateX(0);
    }
  }
</style>
  <g id="explanation_animation 1" clip-path="url(#clip0_1_2)">
    <g id="explanation_animation" filter="url(#filter0_d_1_2)">
      <g id="form">
        <g id="Rectangle 1" filter="url(#filter1_i_1_2)">
          <path id="Vector" d="M29 208.38H1149.95V704C1149.95 709.523 1145.47 714 1139.95 714H39C33.4772 714 29 709.523 29 704V208.38Z" fill="#F1F5F9" />
        </g>
        <g id="Rectangle 2">
          <path id="Vector_2" d="M29 88C29 82.4771 33.4772 78 39 78H1139.95C1145.47 78 1149.95 82.4772 1149.95 88V208.38H29V88Z" fill="#3B82F6" />
        </g>
        <g id="Rectangle 3">
          <path id="Vector_3" d="M726.32 109.8H78.9801C70.6958 109.8 63.9801 116.516 63.9801 124.8V161.58C63.9801 169.864 70.6958 176.58 78.9801 176.58H726.32C734.604 176.58 741.32 169.864 741.32 161.58V124.8C741.32 116.516 734.604 109.8 726.32 109.8Z" fill="#F1F5F9" />
        </g>
        <g id="Rectangle 4">
          <path id="Vector_4" d="M612.12 159.09H83.47C82.3654 159.09 81.47 158.195 81.47 157.09V129.29C81.47 128.185 82.3654 127.29 83.47 127.29H612.12C613.225 127.29 614.12 128.185 614.12 129.29V157.09C614.12 158.195 613.225 159.09 612.12 159.09Z" fill="#475569" />
          <path id="Vector_5" d="M612.12 159.09H83.47C82.3654 159.09 81.47 158.195 81.47 157.09V129.29C81.47 128.185 82.3654 127.29 83.47 127.29H612.12C613.225 127.29 614.12 128.185 614.12 129.29V157.09C614.12 158.195 613.225 159.09 612.12 159.09Z" fill="#475569" />
          <path id="Vector_6" d="M612.12 159.09H83.47C82.3654 159.09 81.47 158.195 81.47 157.09V129.29C81.47 128.185 82.3654 127.29 83.47 127.29H612.12C613.225 127.29 614.12 128.185 614.12 129.29V157.09C614.12 158.195 613.225 159.09 612.12 159.09Z" fill="#475569" />
        </g>
        <g id="Rectangle 5">
          <path id="Vector_7" d="M723.42 159.09H636.79C635.685 159.09 634.79 158.195 634.79 157.09V129.29C634.79 128.185 635.685 127.29 636.79 127.29H723.42C724.525 127.29 725.42 128.185 725.42 129.29V157.09C725.42 158.195 724.525 159.09 723.42 159.09Z" fill="#475569" />
          <path id="Vector_8" d="M723.42 159.09H636.79C635.685 159.09 634.79 158.195 634.79 157.09V129.29C634.79 128.185 635.685 127.29 636.79 127.29H723.42C724.525 127.29 725.42 128.185 725.42 129.29V157.09C725.42 158.195 724.525 159.09 723.42 159.09Z" fill="#475569" />
          <path id="Vector_9" d="M723.42 159.09H636.79C635.685 159.09 634.79 158.195 634.79 157.09V129.29C634.79 128.185 635.685 127.29 636.79 127.29H723.42C724.525 127.29 725.42 128.185 725.42 129.29V157.09C725.42 158.195 724.525 159.09 723.42 159.09Z" fill="#475569" />
        </g>
        <g id="Rectangle 7">
          <path id="Vector_10" d="M888.73 238.59H452.4C446.877 238.59 442.4 243.067 442.4 248.59V273.11C442.4 278.633 446.877 283.11 452.4 283.11H888.73C894.253 283.11 898.73 278.633 898.73 273.11V248.59C898.73 243.067 894.253 238.59 888.73 238.59Z" fill="#97BEFF" />
          <path id="Vector_11" d="M888.73 238.59H452.4C446.877 238.59 442.4 243.067 442.4 248.59V273.11C442.4 278.633 446.877 283.11 452.4 283.11H888.73C894.253 283.11 898.73 278.633 898.73 273.11V248.59C898.73 243.067 894.253 238.59 888.73 238.59Z" fill="#97BEFF" />
          <path id="Vector_12" d="M888.73 238.59H452.4C446.877 238.59 442.4 243.067 442.4 248.59V273.11C442.4 278.633 446.877 283.11 452.4 283.11H888.73C894.253 283.11 898.73 278.633 898.73 273.11V248.59C898.73 243.067 894.253 238.59 888.73 238.59Z" fill="#97BEFF" />
          <path id="Vector_13" d="M888.73 238.59H452.4C446.877 238.59 442.4 243.067 442.4 248.59V273.11C442.4 278.633 446.877 283.11 452.4 283.11H888.73C894.253 283.11 898.73 278.633 898.73 273.11V248.59C898.73 243.067 894.253 238.59 888.73 238.59Z" fill="#97BEFF" />
          <path id="Vector_14" d="M888.73 238.59H452.4C446.877 238.59 442.4 243.067 442.4 248.59V273.11C442.4 278.633 446.877 283.11 452.4 283.11H888.73C894.253 283.11 898.73 278.633 898.73 273.11V248.59C898.73 243.067 894.253 238.59 888.73 238.59Z" fill="#97BEFF" />
          <path id="Vector_15" d="M888.73 238.59H452.4C446.877 238.59 442.4 243.067 442.4 248.59V273.11C442.4 278.633 446.877 283.11 452.4 283.11H888.73C894.253 283.11 898.73 278.633 898.73 273.11V248.59C898.73 243.067 894.253 238.59 888.73 238.59Z" fill="#97BEFF" />
        </g>
        <rect id="progress_bar" x="442.4" y="238.59" width="21.125em" height="44.52" rx="10" fill="#3B82F6" />
        <g id="Rectangle 9">
          <path id="Vector_16" d="M382.65 230.64H319.3C308.254 230.64 299.3 239.594 299.3 250.64V272.65C299.3 283.696 308.254 292.65 319.3 292.65H382.65C393.696 292.65 402.65 283.696 402.65 272.65V250.64C402.65 239.594 393.696 230.64 382.65 230.64Z" fill="#97BCFA" />
        </g>
        <g id="Group 1">
          <path id="Rectangle 6" d="M888.73 322.86H290.22C284.697 322.86 280.22 327.337 280.22 332.86V667.43C280.22 672.953 284.697 677.43 290.22 677.43H888.73C894.253 677.43 898.73 672.953 898.73 667.43V332.86C898.73 327.337 894.253 322.86 888.73 322.86Z" fill="white" />
          <path id="Rectangle 10" d="M553.24 351.48H325.2C319.677 351.48 315.2 355.957 315.2 361.48V393.95C315.2 399.473 319.677 403.95 325.2 403.95H553.24C558.763 403.95 563.24 399.473 563.24 393.95V361.48C563.24 355.957 558.763 351.48 553.24 351.48Z" fill="#F1F5F9" />
          <path id="Rectangle 11" d="M852.16 351.48H624.12C618.597 351.48 614.12 355.957 614.12 361.48V393.95C614.12 399.473 618.597 403.95 624.12 403.95H852.16C857.683 403.95 862.16 399.473 862.16 393.95V361.48C862.16 355.957 857.683 351.48 852.16 351.48Z" fill="#F1F5F9" />
          <path id="Rectangle 13" d="M853.75 575.67H323.61C318.087 575.67 313.61 580.147 313.61 585.67V638.81C313.61 644.333 318.087 648.81 323.61 648.81H853.75C859.273 648.81 863.75 644.333 863.75 638.81V585.67C863.75 580.147 859.273 575.67 853.75 575.67Z" fill="#F1F5F9" />
          <path id="Rectangle 12" d="M855.34 446.88H627.3C621.777 446.88 617.3 451.357 617.3 456.88V489.35C617.3 494.873 621.777 499.35 627.3 499.35H855.34C860.863 499.35 865.34 494.873 865.34 489.35V456.88C865.34 451.357 860.863 446.88 855.34 446.88Z" fill="#F1F5F9" />
        </g>
        <path id="value_5" d="M841.08 631.32H573.19C572.085 631.32 571.19 630.425 571.19 629.32V595.16C571.19 594.055 572.085 593.16 573.19 593.16H841.08C842.185 593.16 843.08 594.055 843.08 595.16V629.32C843.08 630.425 842.185 631.32 841.08 631.32Z" fill="#475569" />
        <g id="value_4">
          <path id="Vector_17" d="M839.75 631.32H337.87C336.765 631.32 335.87 630.425 335.87 629.32V595.16C335.87 594.055 336.765 593.16 337.87 593.16H839.75C840.855 593.16 841.75 594.055 841.75 595.16V629.32C841.75 630.425 840.855 631.32 839.75 631.32Z" fill="#475569" />
        </g>
        <g id="value_3">
          <path id="Vector_18" d="M841.08 485.04H643.15C642.045 485.04 641.15 484.145 641.15 483.04V463.19C641.15 462.085 642.045 461.19 643.15 461.19H841.08C842.185 461.19 843.08 462.085 843.08 463.19V483.04C843.08 484.145 842.185 485.04 841.08 485.04Z" fill="#475569" />
          <path id="Vector_19" d="M841.08 485.04H643.15C642.045 485.04 641.15 484.145 641.15 483.04V463.19C641.15 462.085 642.045 461.19 643.15 461.19H841.08C842.185 461.19 843.08 462.085 843.08 463.19V483.04C843.08 484.145 842.185 485.04 841.08 485.04Z" fill="#475569" />
          <path id="Vector_20" d="M841.08 485.04H643.15C642.045 485.04 641.15 484.145 641.15 483.04V463.19C641.15 462.085 642.045 461.19 643.15 461.19H841.08C842.185 461.19 843.08 462.085 843.08 463.19V483.04C843.08 484.145 842.185 485.04 841.08 485.04Z" fill="#475569" />
        </g>
        <g id="value_2">
          <path id="Vector_21" d="M841.08 389.64H643.15C642.045 389.64 641.15 388.745 641.15 387.64V367.79C641.15 366.685 642.045 365.79 643.15 365.79H841.08C842.185 365.79 843.08 366.685 843.08 367.79V387.64C843.08 388.745 842.185 389.64 841.08 389.64Z" fill="#475569" />
          <path id="Vector_22" d="M841.08 389.64H643.15C642.045 389.64 641.15 388.745 641.15 387.64V367.79C641.15 366.685 642.045 365.79 643.15 365.79H841.08C842.185 365.79 843.08 366.685 843.08 367.79V387.64C843.08 388.745 842.185 389.64 841.08 389.64Z" fill="#475569" />
          <path id="Vector_23" d="M841.08 389.64H643.15C642.045 389.64 641.15 388.745 641.15 387.64V367.79C641.15 366.685 642.045 365.79 643.15 365.79H841.08C842.185 365.79 843.08 366.685 843.08 367.79V387.64C843.08 388.745 842.185 389.64 841.08 389.64Z" fill="#475569" />
        </g>
        <g id="value_1">
          <path id="Vector_24" d="M538.98 389.64H341.05C339.945 389.64 339.05 388.745 339.05 387.64V367.79C339.05 366.685 339.945 365.79 341.05 365.79H538.98C540.085 365.79 540.98 366.685 540.98 367.79V387.64C540.98 388.745 540.085 389.64 538.98 389.64Z" fill="#475569" />
          <path id="Vector_25" d="M538.98 389.64H341.05C339.945 389.64 339.05 388.745 339.05 387.64V367.79C339.05 366.685 339.945 365.79 341.05 365.79H538.98C540.085 365.79 540.98 366.685 540.98 367.79V387.64C540.98 388.745 540.085 389.64 538.98 389.64Z" fill="#475569" />
          <path id="Vector_26" d="M538.98 389.64H341.05C339.945 389.64 339.05 388.745 339.05 387.64V367.79C339.05 366.685 339.945 365.79 341.05 365.79H538.98C540.085 365.79 540.98 366.685 540.98 367.79V387.64C540.98 388.745 540.085 389.64 538.98 389.64Z" fill="#475569" />
        </g>
      </g>
      <g id="phone" filter="url(#filter2_d_1_2)">
        <g id="Rectangle 27">
          <path id="Vector_27" d="M42 65C42 59.4772 46.4772 55 52 55H521C526.523 55 531 59.4772 531 65V733.348C531 738.871 526.523 743.349 521 743.349H52C46.4771 743.349 42 738.871 42 733.349V65Z" fill="#F1F5F9" />
        </g>
        <g id="Rectangle 28">
          <path id="Vector_28" d="M66.0491 87.255C66.0491 81.7322 70.5262 77.255 76.0491 77.255H502.963C508.486 77.255 512.963 81.7322 512.963 87.255V598.165C512.963 603.688 508.486 608.165 502.963 608.165H76.0491C70.5262 608.165 66.0491 603.688 66.0491 598.165V87.255Z" fill="#8EB8FD" />
        </g>
        <g id="Rectangle 21">
          <path id="Vector_29" d="M66.0491 87.255C66.0491 81.7322 70.5262 77.255 76.0491 77.255H502.963C508.486 77.255 512.963 81.7322 512.963 87.255V197.138H66.0491V87.255Z" fill="#3B82F6" />
        </g>
        <g id="Rectangle 21_2">
          <path id="Vector_30" d="M406.766 101.232H100.098C94.5754 101.232 90.0983 105.709 90.0983 111.232V137.472C90.0983 142.995 94.5754 147.472 100.098 147.472H406.766C412.289 147.472 416.766 142.995 416.766 137.472V111.232C416.766 105.709 412.289 101.232 406.766 101.232Z" fill="#F1F5F9" />
        </g>
        <g id="Rectangle 27_2">
          <path id="Vector_31" d="M300.533 135.484H108.131C107.026 135.484 106.131 134.589 106.131 133.484V113.507C106.131 112.403 107.026 111.507 108.131 111.507H300.533C301.638 111.507 302.533 112.403 302.533 113.507V133.484C302.533 134.589 301.638 135.484 300.533 135.484Z" fill="#475569" />
          <path id="Vector_32" d="M300.533 135.484H108.131C107.026 135.484 106.131 134.589 106.131 133.484V113.507C106.131 112.403 107.026 111.507 108.131 111.507H300.533C301.638 111.507 302.533 112.403 302.533 113.507V133.484C302.533 134.589 301.638 135.484 300.533 135.484Z" fill="#475569" />
          <path id="Vector_33" d="M300.533 135.484H108.131C107.026 135.484 106.131 134.589 106.131 133.484V113.507C106.131 112.403 107.026 111.507 108.131 111.507H300.533C301.638 111.507 302.533 112.403 302.533 113.507V133.484C302.533 134.589 301.638 135.484 300.533 135.484Z" fill="#475569" />
        </g>
        <g id="Rectangle 30">
          <path id="Vector_34" d="M398.734 135.484H318.562C317.457 135.484 316.562 134.589 316.562 133.484V113.507C316.562 112.403 317.457 111.507 318.562 111.507H398.734C399.839 111.507 400.734 112.403 400.734 113.507V133.484C400.734 134.589 399.839 135.484 398.734 135.484Z" fill="#475569" />
          <path id="Vector_35" d="M398.734 135.484H318.562C317.457 135.484 316.562 134.589 316.562 133.484V113.507C316.562 112.403 317.457 111.507 318.562 111.507H398.734C399.839 111.507 400.734 112.403 400.734 113.507V133.484C400.734 134.589 399.839 135.484 398.734 135.484Z" fill="#475569" />
          <path id="Vector_36" d="M398.734 135.484H318.562C317.457 135.484 316.562 134.589 316.562 133.484V113.507C316.562 112.403 317.457 111.507 318.562 111.507H398.734C399.839 111.507 400.734 112.403 400.734 113.507V133.484C400.734 134.589 399.839 135.484 398.734 135.484Z" fill="#475569" />
        </g>
        <g id="Rectangle 29">
          <path id="Vector_37" d="M316.763 622.376H254.533C243.487 622.376 234.533 631.33 234.533 642.376V704.606C234.533 715.652 243.487 724.606 254.533 724.606H316.763C327.809 724.606 336.763 715.652 336.763 704.606V642.376C336.763 631.33 327.809 622.376 316.763 622.376Z" fill="#475569" />
        </g>
        <g id="Group 13">
          <path id="phone_ok_1" d="M257.22 417.036L289.593 384.663" stroke="#75A9FF" stroke-width="4.0625em" />
          <path id="phone_ok_2" d="M286.591 375.696L315.556 404.662" stroke="#75A9FF" stroke-width="6.25em" />
        </g>
      </g>
      <g id="hammer_stand" filter="url(#filter3_d_1_2)">
        <g id="Rectangle 67" filter="url(#filter4_i_1_2)">
          <path id="Vector_38" d="M660.181 595C660.181 589.477 664.658 585 670.181 585H1044.43C1049.95 585 1054.43 589.477 1054.43 595V642.181H660.181V595Z" fill="#64748B" />
        </g>
        <g id="Rectangle 66" filter="url(#filter5_i_1_2)">
          <path id="Vector_39" d="M603 652.181C603 646.658 607.477 642.181 613 642.181H1100.1C1105.63 642.181 1110.1 646.658 1110.1 652.181V743H603V652.181Z" fill="#475569" />
        </g>
        <path id="Rectangle 69" d="M603 652.181C603 646.658 607.477 642.181 613 642.181H1100.1C1105.63 642.181 1110.1 646.658 1110.1 652.181V667.762H603V652.181Z" fill="#FCD34D" />
      </g>
      <g id="hammer" filter="url(#filter6_d_1_2)">
        <path id="Rectangle 68" d="M953.876 383.208L1585.77 383.339C1591.3 383.34 1595.77 387.818 1595.77 393.341V424.627C1595.77 430.15 1591.29 434.626 1585.76 434.625L953.866 434.493L953.876 383.208Z" fill="#475569" />
        <path id="Rectangle 71" d="M943.909 226H762.075C756.552 226 752.075 230.477 752.075 236V575C752.075 580.523 756.552 585 762.075 585H943.909C949.432 585 953.909 580.523 953.909 575V236C953.909 230.477 949.432 226 943.909 226Z" fill="#64748B" />
        <path id="Rectangle 72" d="M953.905 242.544H752.071V269.014H953.905V242.544Z" fill="#FCD34D" />
        <path id="Rectangle 73" d="M953.843 543.641H752.009V570.111H953.843V543.641Z" fill="#FCD34D" />
      </g>
      <path id="cloud_outer" d="M686.84 488.152C692.489 484.458 695.894 478.163 695.894 471.413V446.444C695.894 441.978 697.388 437.641 700.14 434.123L726.343 400.62C730.133 395.773 735.944 392.941 742.097 392.941H785.255C790.174 392.941 794.905 394.835 798.465 398.23L802.918 402.476C809.764 409.005 820.938 407.277 825.493 398.985C827.592 395.163 831.309 392.497 835.602 391.735L857.383 387.865C861.42 387.148 865.139 385.208 868.036 382.307L879.884 370.442C882.431 367.893 885.618 366.078 889.111 365.191L913.212 359.068C918.418 357.745 923.937 358.572 928.527 361.362L951.238 375.17C952.249 375.784 953.204 376.488 954.091 377.271L979.926 400.096C980.88 400.94 981.752 401.873 982.529 402.882L1013.1 442.581C1015.79 446.079 1017.25 450.369 1017.25 454.784V472.684C1017.25 478.723 1019.98 484.438 1024.68 488.235L1053.58 511.607C1058.27 515.404 1061 521.12 1061 527.158V554.937C1061 564.302 1054.5 572.413 1045.36 574.456L1000.34 584.518C998.909 584.839 997.446 585 995.978 585H855.733H716.084L683.618 581.558C674.642 580.606 667.416 573.761 665.981 564.85L660.739 532.305C660.253 529.288 660.465 526.2 661.358 523.277L666.295 507.129C667.663 502.653 670.558 498.799 674.475 496.238L686.84 488.152Z" fill="#D9D9D9" fill-opacity="0.8" />
      <path id="cloud_inner" d="M734.858 531.585C741.411 528.12 745.51 521.316 745.51 513.903V509.522C745.51 504.332 747.528 499.346 751.136 495.616L765.524 480.744C769.292 476.849 774.479 474.65 779.898 474.65H809.333C812.663 474.65 815.899 475.753 818.535 477.786L822.481 480.827C827.215 484.477 834.045 483.384 837.404 478.44C839.044 476.026 841.625 474.414 844.514 473.999L859.236 471.885C862.807 471.372 866.173 469.903 868.977 467.633L875.255 462.551C877.743 460.537 880.679 459.149 883.815 458.505L899.045 455.377C903.39 454.484 907.909 455.062 911.89 457.019L926.6 464.248C927.578 464.729 928.516 465.289 929.403 465.922L946.852 478.386C947.881 479.12 948.837 479.951 949.709 480.866L968.39 500.478C971.933 504.197 973.909 509.136 973.909 514.272V515.134C973.909 521.885 977.314 528.18 982.965 531.874L995.945 540.36C1001.59 544.054 1005 550.349 1005 557.1V560.223C1005 569.897 998.076 578.185 988.556 579.905L962.12 584.681C960.947 584.893 959.757 585 958.564 585H859.112H759.86L740.949 583.379C732.081 582.619 724.782 576.09 723.043 567.36L721.12 557.71C720.388 554.036 720.703 550.231 722.027 546.727L723.304 543.351C725.028 538.793 728.356 535.022 732.664 532.744L734.858 531.585Z" fill="#64748B" fill-opacity="0.4" />
      <g id="terminal_back" filter="url(#filter7_d_1_2)">
        <rect x="634" y="108" width="502" height="635" rx="20" fill="white" />
      </g>
      <g id="card">
        <g id="Rectangle 33" filter="url(#filter8_i_1_2)">
          <path id="Vector_41" d="M892.937 59H552C546.477 59 542 63.4772 542 69V619.936C542 625.459 546.477 629.936 552 629.936H892.937C898.46 629.936 902.937 625.459 902.937 619.936V69C902.937 63.4772 898.46 59 892.937 59Z" fill="#F1F5F9" />
        </g>
        <path id="Rectangle 34" d="M870.124 59H766.765V629.936H870.124V59Z" fill="#475569" />
      </g>
      <g id="terminal" filter="url(#filter9_d_1_2)">
        <g id="Rectangle 31">
          <path id="Vector_42" d="M1116.33 107.88H808.918C797.872 107.88 788.918 116.834 788.918 127.88V723C788.918 734.046 797.872 743 808.918 743H1116.33C1127.38 743 1136.33 734.046 1136.33 723V127.88C1136.33 116.834 1127.38 107.88 1116.33 107.88Z" fill="#89B6FF" />
        </g>
        <g id="Rectangle 36">
          <path id="Vector_43" d="M1087.38 131.403H837.87C826.824 131.403 817.87 140.357 817.87 151.403V319.491C817.87 330.537 826.824 339.491 837.87 339.491H1087.38C1098.43 339.491 1107.38 330.537 1107.38 319.491V151.403C1107.38 140.357 1098.43 131.403 1087.38 131.403Z" fill="#475569" />
        </g>
        <g id="Rectangle 37">
          <path id="Vector_44" d="M1097.38 363.013H827.87C822.347 363.013 817.87 367.49 817.87 373.013V709.477C817.87 715 822.347 719.477 827.87 719.477H1097.38C1102.91 719.477 1107.38 715 1107.38 709.477V373.013C1107.38 367.49 1102.91 363.013 1097.38 363.013Z" fill="#3B82F6" />
        </g>
        <g id="Rectangle 38">
          <path id="Vector_45" d="M1082.48 381.108H842.774C840.013 381.108 837.774 383.347 837.774 386.108V640.289C837.774 643.05 840.013 645.289 842.774 645.289H1082.48C1085.24 645.289 1087.48 643.05 1087.48 640.289V386.108C1087.48 383.347 1085.24 381.108 1082.48 381.108Z" fill="white" />
        </g>
        <g id="Rectangle 40">
          <path id="Vector_46" d="M905.152 659.765H842.774C840.013 659.765 837.774 662.004 837.774 664.765V694.573C837.774 697.335 840.013 699.573 842.774 699.573H905.152C907.914 699.573 910.152 697.335 910.152 694.573V664.765C910.152 662.004 907.914 659.765 905.152 659.765Z" fill="#F1F5F9" />
        </g>
        <g id="Rectangle 41">
          <path id="Vector_47" d="M1082.48 659.765H1020.1C1017.34 659.765 1015.1 662.004 1015.1 664.765V694.573C1015.1 697.335 1017.34 699.573 1020.1 699.573H1082.48C1085.24 699.573 1087.48 697.335 1087.48 694.573V664.765C1087.48 662.004 1085.24 659.765 1082.48 659.765Z" fill="#F1F5F9" />
        </g>
        <g id="Rectangle 42">
          <path id="Vector_48" d="M993.815 659.765H931.437C928.676 659.765 926.437 662.004 926.437 664.765V694.573C926.437 697.335 928.676 699.573 931.437 699.573H993.815C996.577 699.573 998.815 697.335 998.815 694.573V664.765C998.815 662.004 996.577 659.765 993.815 659.765Z" fill="#F1F5F9" />
        </g>
        <g id="Rectangle 43">
          <path id="Vector_49" d="M910.58 395.584H853.63C850.869 395.584 848.63 397.823 848.63 400.584V464.772C848.63 467.533 850.869 469.772 853.63 469.772H910.58C913.341 469.772 915.58 467.533 915.58 464.772V400.584C915.58 397.823 913.341 395.584 910.58 395.584Z" fill="#475569" />
        </g>
        <g id="Rectangle 44">
          <path id="Vector_50" d="M1071.62 395.584H1014.67C1011.91 395.584 1009.67 397.823 1009.67 400.584V464.772C1009.67 467.533 1011.91 469.772 1014.67 469.772H1071.62C1074.38 469.772 1076.62 467.533 1076.62 464.772V400.584C1076.62 397.823 1074.38 395.584 1071.62 395.584Z" fill="#475569" />
        </g>
        <g id="Rectangle 45">
          <path id="Vector_51" d="M992.006 395.584H933.247C930.486 395.584 928.247 397.823 928.247 400.584V464.772C928.247 467.533 930.486 469.772 933.247 469.772H992.006C994.768 469.772 997.006 467.533 997.006 464.772V400.584C997.006 397.823 994.768 395.584 992.006 395.584Z" fill="#475569" />
        </g>
        <g id="Rectangle 46">
          <path id="Vector_52" d="M910.58 477.01H853.63C850.869 477.01 848.63 479.249 848.63 482.01V546.198C848.63 548.959 850.869 551.198 853.63 551.198H910.58C913.341 551.198 915.58 548.959 915.58 546.198V482.01C915.58 479.249 913.341 477.01 910.58 477.01Z" fill="#475569" />
        </g>
        <g id="Rectangle 47">
          <path id="Vector_53" d="M1071.62 477.01H1014.67C1011.91 477.01 1009.67 479.249 1009.67 482.01V546.198C1009.67 548.959 1011.91 551.198 1014.67 551.198H1071.62C1074.38 551.198 1076.62 548.959 1076.62 546.198V482.01C1076.62 479.249 1074.38 477.01 1071.62 477.01Z" fill="#475569" />
        </g>
        <g id="Rectangle 48">
          <path id="Vector_54" d="M992.006 477.01H933.247C930.486 477.01 928.247 479.249 928.247 482.01V546.198C928.247 548.959 930.486 551.198 933.247 551.198H992.006C994.768 551.198 997.006 548.959 997.006 546.198V482.01C997.006 479.249 994.768 477.01 992.006 477.01Z" fill="#475569" />
        </g>
        <g id="Rectangle 49">
          <path id="Vector_55" d="M910.58 558.435H853.63C850.869 558.435 848.63 560.674 848.63 563.435V627.623C848.63 630.384 850.869 632.623 853.63 632.623H910.58C913.341 632.623 915.58 630.384 915.58 627.623V563.435C915.58 560.674 913.341 558.435 910.58 558.435Z" fill="#475569" />
        </g>
        <g id="Rectangle 50">
          <path id="Vector_56" d="M1071.62 558.435H1014.67C1011.91 558.435 1009.67 560.674 1009.67 563.435V627.623C1009.67 630.384 1011.91 632.623 1014.67 632.623H1071.62C1074.38 632.623 1076.62 630.384 1076.62 627.623V563.435C1076.62 560.674 1074.38 558.435 1071.62 558.435Z" fill="#475569" />
        </g>
        <g id="Rectangle 51">
          <path id="Vector_57" d="M992.006 558.435H933.247C930.486 558.435 928.247 560.674 928.247 563.435V627.623C928.247 630.384 930.486 632.623 933.247 632.623H992.006C994.768 632.623 997.006 630.384 997.006 627.623V563.435C997.006 560.674 994.768 558.435 992.006 558.435Z" fill="#475569" />
        </g>
        <path id="Ellipse 2" d="M873.963 690.835C880.13 690.835 885.129 685.836 885.129 679.669C885.129 673.502 880.13 668.503 873.963 668.503C867.796 668.503 862.797 673.502 862.797 679.669C862.797 685.836 867.796 690.835 873.963 690.835Z" stroke="#475569" stroke-width="3" />
        <g id="Group 6">
          <path id="Line 1" d="M948.109 676.591L961.788 690.27" stroke="#22C55E" stroke-width="5" />
          <path id="Line 2" d="M958.252 690.27L977.859 670.663" stroke="#22C55E" stroke-width="5" />
        </g>
        <path id="terminal_ok_4" d="M1061.44 668.063L1039.68 689.815" stroke="#EF4444" stroke-width="3" />
        <path id="terminal_ok_3" d="M1039.68 669.78L1061.44 691.532" stroke="#EF4444" stroke-width="3" />
        <g id="Group 13_2">
          <path id="terminal_ok_1" d="M932.802 264.231L958.147 238.885" stroke="#22C55E" stroke-width="3.75em" />
          <path id="terminal_ok_2" d="M966.693 227.411L989.37 250.089" stroke="#22C55E" stroke-width="6.25em" />
        </g>
      </g>
      <g id="printer" filter="url(#filter10_d_1_2)">
        <g id="Rectangle 52">
          <path id="Vector_58" d="M1093 302.323H86C80.4772 302.323 76 306.8 76 312.323V598.238C76 603.761 80.4772 608.238 86 608.238H1093C1098.52 608.238 1103 603.761 1103 598.238V312.323C1103 306.8 1098.52 302.323 1093 302.323Z" fill="#F1F5F9" />
        </g>
        <g id="Rectangle 53">
          <path id="Vector_59" d="M250.809 437.603C250.809 432.08 255.286 427.603 260.809 427.603H909.451C914.974 427.603 919.451 432.08 919.451 437.603V608.238H250.809V437.603Z" fill="#3B82F6" />
        </g>
        <g id="Rectangle 59" filter="url(#filter11_i_1_2)">
          <path id="Vector_60" d="M329.472 471.108C329.472 465.585 333.95 461.108 339.472 461.108H839.528C845.051 461.108 849.528 465.585 849.528 471.108V608.238H329.472V471.108Z" fill="#64748B" />
        </g>
        <g id="Rectangle 60">
          <path id="Vector_61" d="M370.261 506.07C370.261 500.547 374.738 496.07 380.261 496.07H792.912C798.435 496.07 802.912 500.547 802.912 506.07V608.238H370.261V506.07Z" fill="#475569" />
        </g>
        <path id="Rectangle 61" d="M785.431 516.464H387.742V536.858H785.431V516.464Z" fill="#323C4A" />
        <g id="page">
          <g id="Rectangle 65">
            <path id="Vector_62" d="M775.233 27H395.025V487.329H775.233V27Z" fill="white" />
          </g>
          <path id="Rectangle 74" d="M701.854 131.885H466.949C465.844 131.885 464.949 132.78 464.949 133.885V179.414C464.949 180.519 465.844 181.414 466.949 181.414H701.854C702.959 181.414 703.854 180.519 703.854 179.414V133.885C703.854 132.78 702.959 131.885 701.854 131.885Z" fill="#475569" />
          <path id="Rectangle 82" d="M518.305 347.482H442.184C441.079 347.482 440.184 348.377 440.184 349.482V362.963C440.184 364.067 441.079 364.963 442.184 364.963H518.305C519.409 364.963 520.305 364.067 520.305 362.963V349.482C520.305 348.377 519.409 347.482 518.305 347.482Z" fill="#475569" />
          <g id="Group 11">
            <path id="Rectangle 75" d="M532.873 216.376H468.406C467.301 216.376 466.406 217.271 466.406 218.376V231.857C466.406 232.961 467.301 233.857 468.406 233.857H532.873C533.977 233.857 534.873 232.961 534.873 231.857V218.376C534.873 217.271 533.977 216.376 532.873 216.376Z" fill="#475569" />
            <path id="Rectangle 80" d="M617.363 281.929H552.896C551.791 281.929 550.896 282.824 550.896 283.929V297.41C550.896 298.514 551.791 299.41 552.896 299.41H617.363C618.467 299.41 619.363 298.514 619.363 297.41V283.929C619.363 282.824 618.467 281.929 617.363 281.929Z" fill="#475569" />
            <path id="Rectangle 78" d="M726.618 248.424H635.93C634.825 248.424 633.93 249.319 633.93 250.424V265.362C633.93 266.466 634.825 267.362 635.93 267.362H726.618C727.723 267.362 728.618 266.466 728.618 265.362V250.424C728.618 249.319 727.723 248.424 726.618 248.424Z" fill="#475569" />
            <path id="Rectangle 81" d="M728.075 281.929H637.387C636.282 281.929 635.387 282.824 635.387 283.929V297.41C635.387 298.514 636.282 299.41 637.387 299.41H728.075C729.18 299.41 730.075 298.514 730.075 297.41V283.929C730.075 282.824 729.18 281.929 728.075 281.929Z" fill="#475569" />
            <path id="Rectangle 79" d="M532.872 281.929H442.184C441.079 281.929 440.184 282.824 440.184 283.929V297.41C440.184 298.514 441.079 299.41 442.184 299.41H532.872C533.977 299.41 534.872 298.514 534.872 297.41V283.929C534.872 282.824 533.977 281.929 532.872 281.929Z" fill="#475569" />
            <path id="Rectangle 76" d="M726.619 216.376H557.267C556.162 216.376 555.267 217.271 555.267 218.376V231.857C555.267 232.961 556.162 233.857 557.267 233.857H726.619C727.724 233.857 728.619 232.961 728.619 231.857V218.376C728.619 217.271 727.724 216.376 726.619 216.376Z" fill="#475569" />
            <path id="Rectangle 77" d="M611.536 248.424H442.184C441.079 248.424 440.184 249.319 440.184 250.424V265.362C440.184 266.466 441.079 267.362 442.184 267.362H611.536C612.641 267.362 613.536 266.466 613.536 265.362V250.424C613.536 249.319 612.641 248.424 611.536 248.424Z" fill="#475569" />
          </g>
          <g id="Group 12">
            <path id="Rectangle 75_2" d="M661.878 57.5916H643.17C642.065 57.5916 641.17 58.487 641.17 59.5916V63.872C641.17 64.9766 642.065 65.872 643.17 65.872H661.878C662.982 65.872 663.878 64.9766 663.878 63.872V59.5916C663.878 58.487 662.982 57.5916 661.878 57.5916Z" fill="#475569" />
            <path id="Rectangle 80_2" d="M689.899 88.6429H671.192C670.087 88.6429 669.192 89.5383 669.192 90.6429V94.9233C669.192 96.0279 670.087 96.9233 671.192 96.9233H689.899C691.004 96.9233 691.899 96.0279 691.899 94.9233V90.6429C691.899 89.5383 691.004 88.6429 689.899 88.6429Z" fill="#475569" />
            <path id="Rectangle 78_2" d="M726.135 72.7721H698.731C697.626 72.7721 696.731 73.6676 696.731 74.7721V79.7426C696.731 80.8471 697.626 81.7426 698.731 81.7426H726.135C727.24 81.7426 728.135 80.8471 728.135 79.7426V74.7721C728.135 73.6676 727.24 72.7721 726.135 72.7721Z" fill="#475569" />
            <path id="Rectangle 81_2" d="M726.618 88.6429H699.214C698.109 88.6429 697.214 89.5383 697.214 90.6429V94.9233C697.214 96.0279 698.109 96.9233 699.214 96.9233H726.618C727.723 96.9233 728.618 96.0279 728.618 94.9233V90.6429C728.618 89.5383 727.723 88.6429 726.618 88.6429Z" fill="#475569" />
            <path id="Rectangle 79_2" d="M661.878 88.6429H634.474C633.369 88.6429 632.474 89.5383 632.474 90.6429V94.9233C632.474 96.0279 633.369 96.9233 634.474 96.9233H661.878C662.983 96.9233 663.878 96.0279 663.878 94.9233V90.6429C663.878 89.5383 662.983 88.6429 661.878 88.6429Z" fill="#475569" />
            <path id="Rectangle 76_2" d="M726.136 57.5916H672.642C671.537 57.5916 670.642 58.487 670.642 59.5916V63.872C670.642 64.9766 671.537 65.872 672.642 65.872H726.136C727.24 65.872 728.136 64.9766 728.136 63.872V59.5916C728.136 58.487 727.24 57.5916 726.136 57.5916Z" fill="#475569" />
            <path id="Rectangle 77_2" d="M687.968 72.7721H634.474C633.369 72.7721 632.474 73.6676 632.474 74.7721V79.7426C632.474 80.8471 633.369 81.7426 634.474 81.7426H687.968C689.072 81.7426 689.968 80.8471 689.968 79.7426V74.7721C689.968 73.6676 689.072 72.7721 687.968 72.7721Z" fill="#475569" />
          </g>
          <path id="signature" d="M591.141 383.901H442.184C441.079 383.901 440.184 384.796 440.184 385.901V412.492C440.184 413.597 441.079 414.492 442.184 414.492H591.141C592.246 414.492 593.141 413.597 593.141 412.492V385.901C593.141 384.796 592.246 383.901 591.141 383.901Z" fill="#3B82F6" />
        </g>
        <path id="Rectangle 68_2" d="M785.431 516.464H387.742V526.661H785.431V516.464Z" fill="#323C4A" />
        <path id="Rectangle 67_2" d="M370.261 506.07C370.261 500.547 374.738 496.07 380.261 496.07H792.912C798.435 496.07 802.912 500.547 802.912 506.07V516.464H370.261V506.07Z" fill="#475569" />
        <path id="Rectangle 64" d="M250.809 437.603C250.809 432.08 255.286 427.603 260.809 427.603H909.451C914.974 427.603 919.451 432.08 919.451 437.603V461.108H250.809V437.603Z" fill="#3B82F6" />
        <path id="Rectangle 66_2" d="M329.472 471.108C329.472 465.585 333.95 461.108 339.472 461.108H839.528C845.051 461.108 849.528 465.585 849.528 471.108V496.07H329.472V471.108Z" fill="#64748B" />
        <path id="Rectangle 65_2" d="M1093 302.323H86C80.4772 302.323 76 306.8 76 312.323V417.602C76 423.125 80.4772 427.602 86 427.602H1093C1098.52 427.602 1103 423.125 1103 417.602V312.323C1103 306.8 1098.52 302.323 1093 302.323Z" fill="#F1F5F9" />
        <g id="Rectangle 54" filter="url(#filter12_i_1_2)">
          <path id="Vector_63" d="M290.141 262.165C290.141 259.403 292.379 257.165 295.141 257.165H875.119C877.881 257.165 880.119 259.403 880.119 262.165V302.323H290.141V262.165Z" fill="#97BEFF" />
        </g>
        <g id="empty_page">
          <path id="Vector_64" d="M775.233 27H395.025V257.165H775.233V27Z" fill="white" />
        </g>
        <path id="printer_red_light" d="M154.664 360.593C161.905 360.593 167.775 354.723 167.775 347.482C167.775 340.241 161.905 334.371 154.664 334.371C147.423 334.371 141.553 340.241 141.553 347.482C141.553 354.723 147.423 360.593 154.664 360.593Z" fill="#EF4444" />
        <path id="printer_green_light" d="M207.933 334.372H191.712C188.951 334.372 186.712 336.611 186.712 339.372V355.593C186.712 358.355 188.951 360.593 191.712 360.593H207.933C210.695 360.593 212.933 358.355 212.933 355.593V339.372C212.933 336.611 210.695 334.372 207.933 334.372Z" fill="#22C55E" />
        <g id="Rectangle 63">
          <path id="Vector_65" d="M1054.93 302.323H976.264V608.238H1054.93V302.323Z" fill="white" />
        </g>
      </g>
    </g>
  </g>
  <defs>
    <filter id="filter0_d_1_2" x="29" y="27" width="1567.77" height="717.349" filterUnits="userSpaceOnUse" color-interpolation-filters="sRGB">
      <feFlood flood-opacity="0" result="BackgroundImageFix" />
      <feColorMatrix in="SourceAlpha" type="matrix" values="0 0 0 0 0 0 0 0 0 0 0 0 0 0 0 0 0 0 127 0" result="hardAlpha" />
      <feOffset dx="1" dy="1" />
      <feComposite in2="hardAlpha" operator="out" />
      <feColorMatrix type="matrix" values="0 0 0 0 0 0 0 0 0 0 0 0 0 0 0 0 0 0 0.1 0" />
      <feBlend mode="normal" in2="BackgroundImageFix" result="effect1_dropShadow_1_2" />
      <feBlend mode="normal" in="SourceGraphic" in2="effect1_dropShadow_1_2" result="shape" />
    </filter>
    <filter id="filter1_i_1_2" x="29" y="208.38" width="1120.95" height="507.62" filterUnits="userSpaceOnUse" color-interpolation-filters="sRGB">
      <feFlood flood-opacity="0" result="BackgroundImageFix" />
      <feBlend mode="normal" in="SourceGraphic" in2="BackgroundImageFix" result="shape" />
      <feColorMatrix in="SourceAlpha" type="matrix" values="0 0 0 0 0 0 0 0 0 0 0 0 0 0 0 0 0 0 127 0" result="hardAlpha" />
      <feOffset dy="2" />
      <feGaussianBlur stdDeviation="2" />
      <feComposite in2="hardAlpha" operator="arithmetic" k2="-1" k3="1" />
      <feColorMatrix type="matrix" values="0 0 0 0 0 0 0 0 0 0 0 0 0 0 0 0 0 0 0.1 0" />
      <feBlend mode="normal" in2="shape" result="effect1_innerShadow_1_2" />
    </filter>
    <filter id="filter2_d_1_2" x="42" y="55" width="490" height="689.349" filterUnits="userSpaceOnUse" color-interpolation-filters="sRGB">
      <feFlood flood-opacity="0" result="BackgroundImageFix" />
      <feColorMatrix in="SourceAlpha" type="matrix" values="0 0 0 0 0 0 0 0 0 0 0 0 0 0 0 0 0 0 127 0" result="hardAlpha" />
      <feOffset dx="1" dy="1" />
      <feComposite in2="hardAlpha" operator="out" />
      <feColorMatrix type="matrix" values="0 0 0 0 0 0 0 0 0 0 0 0 0 0 0 0 0 0 0.1 0" />
      <feBlend mode="normal" in2="BackgroundImageFix" result="effect1_dropShadow_1_2" />
      <feBlend mode="normal" in="SourceGraphic" in2="effect1_dropShadow_1_2" result="shape" />
    </filter>
    <filter id="filter3_d_1_2" x="603" y="585" width="508.1" height="159" filterUnits="userSpaceOnUse" color-interpolation-filters="sRGB">
      <feFlood flood-opacity="0" result="BackgroundImageFix" />
      <feColorMatrix in="SourceAlpha" type="matrix" values="0 0 0 0 0 0 0 0 0 0 0 0 0 0 0 0 0 0 127 0" result="hardAlpha" />
      <feOffset dx="1" dy="1" />
      <feComposite in2="hardAlpha" operator="out" />
      <feColorMatrix type="matrix" values="0 0 0 0 0 0 0 0 0 0 0 0 0 0 0 0 0 0 0.1 0" />
      <feBlend mode="normal" in2="BackgroundImageFix" result="effect1_dropShadow_1_2" />
      <feBlend mode="normal" in="SourceGraphic" in2="effect1_dropShadow_1_2" result="shape" />
    </filter>
    <filter id="filter4_i_1_2" x="660.181" y="585" width="395.249" height="57.181" filterUnits="userSpaceOnUse" color-interpolation-filters="sRGB">
      <feFlood flood-opacity="0" result="BackgroundImageFix" />
      <feBlend mode="normal" in="SourceGraphic" in2="BackgroundImageFix" result="shape" />
      <feColorMatrix in="SourceAlpha" type="matrix" values="0 0 0 0 0 0 0 0 0 0 0 0 0 0 0 0 0 0 127 0" result="hardAlpha" />
      <feOffset dx="1" />
      <feGaussianBlur stdDeviation="2" />
      <feComposite in2="hardAlpha" operator="arithmetic" k2="-1" k3="1" />
      <feColorMatrix type="matrix" values="0 0 0 0 0 0 0 0 0 0 0 0 0 0 0 0 0 0 0.1 0" />
      <feBlend mode="normal" in2="shape" result="effect1_innerShadow_1_2" />
    </filter>
    <filter id="filter5_i_1_2" x="603" y="642.181" width="508.1" height="101.819" filterUnits="userSpaceOnUse" color-interpolation-filters="sRGB">
      <feFlood flood-opacity="0" result="BackgroundImageFix" />
      <feBlend mode="normal" in="SourceGraphic" in2="BackgroundImageFix" result="shape" />
      <feColorMatrix in="SourceAlpha" type="matrix" values="0 0 0 0 0 0 0 0 0 0 0 0 0 0 0 0 0 0 127 0" result="hardAlpha" />
      <feOffset dx="1" dy="1" />
      <feGaussianBlur stdDeviation="2" />
      <feComposite in2="hardAlpha" operator="arithmetic" k2="-1" k3="1" />
      <feColorMatrix type="matrix" values="0 0 0 0 0 0 0 0 0 0 0 0 0 0 0 0 0 0 0.1 0" />
      <feBlend mode="normal" in2="shape" result="effect1_innerShadow_1_2" />
    </filter>
    <filter id="filter6_d_1_2" x="752.009" y="226" width="844.761" height="360" filterUnits="userSpaceOnUse" color-interpolation-filters="sRGB">
      <feFlood flood-opacity="0" result="BackgroundImageFix" />
      <feColorMatrix in="SourceAlpha" type="matrix" values="0 0 0 0 0 0 0 0 0 0 0 0 0 0 0 0 0 0 127 0" result="hardAlpha" />
      <feOffset dx="1" dy="1" />
      <feComposite in2="hardAlpha" operator="out" />
      <feColorMatrix type="matrix" values="0 0 0 0 0 0 0 0 0 0 0 0 0 0 0 0 0 0 0.1 0" />
      <feBlend mode="normal" in2="BackgroundImageFix" result="effect1_dropShadow_1_2" />
      <feBlend mode="normal" in="SourceGraphic" in2="effect1_dropShadow_1_2" result="shape" />
    </filter>
    <filter id="filter7_d_1_2" x="634" y="108" width="504" height="637" filterUnits="userSpaceOnUse" color-interpolation-filters="sRGB">
      <feFlood flood-opacity="0" result="BackgroundImageFix" />
      <feColorMatrix in="SourceAlpha" type="matrix" values="0 0 0 0 0 0 0 0 0 0 0 0 0 0 0 0 0 0 127 0" result="hardAlpha" />
      <feOffset dy="1" />
      <feGaussianBlur stdDeviation="0.5" />
      <feColorMatrix type="matrix" values="0 0 0 0 0 0 0 0 0 0 0 0 0 0 0 0 0 0 0.1 0" />
      <feBlend mode="normal" in2="BackgroundImageFix" result="effect1_dropShadow_1_2" />
      <feBlend mode="normal" in="SourceGraphic" in2="effect1_dropShadow_1_2" result="shape" />
    </filter>
    <filter id="filter8_i_1_2" x="542" y="59" width="360.937" height="571.936" filterUnits="userSpaceOnUse" color-interpolation-filters="sRGB">
      <feFlood flood-opacity="0" result="BackgroundImageFix" />
      <feBlend mode="normal" in="SourceGraphic" in2="BackgroundImageFix" result="shape" />
      <feColorMatrix in="SourceAlpha" type="matrix" values="0 0 0 0 0 0 0 0 0 0 0 0 0 0 0 0 0 0 127 0" result="hardAlpha" />
      <feOffset dy="1" />
      <feGaussianBlur stdDeviation="2" />
      <feComposite in2="hardAlpha" operator="arithmetic" k2="-1" k3="1" />
      <feColorMatrix type="matrix" values="0 0 0 0 0 0 0 0 0 0 0 0 0 0 0 0 0 0 0.1 0" />
      <feBlend mode="normal" in2="shape" result="effect1_innerShadow_1_2" />
    </filter>
    <filter id="filter9_d_1_2" x="788.918" y="107.88" width="348.416" height="636.12" filterUnits="userSpaceOnUse" color-interpolation-filters="sRGB">
      <feFlood flood-opacity="0" result="BackgroundImageFix" />
      <feColorMatrix in="SourceAlpha" type="matrix" values="0 0 0 0 0 0 0 0 0 0 0 0 0 0 0 0 0 0 127 0" result="hardAlpha" />
      <feOffset dx="1" dy="1" />
      <feComposite in2="hardAlpha" operator="out" />
      <feColorMatrix type="matrix" values="0 0 0 0 0 0 0 0 0 0 0 0 0 0 0 0 0 0 0.25 0" />
      <feBlend mode="normal" in2="BackgroundImageFix" result="effect1_dropShadow_1_2" />
      <feBlend mode="normal" in="SourceGraphic" in2="effect1_dropShadow_1_2" result="shape" />
    </filter>
    <filter id="filter10_d_1_2" x="76" y="27" width="1028" height="582.238" filterUnits="userSpaceOnUse" color-interpolation-filters="sRGB">
      <feFlood flood-opacity="0" result="BackgroundImageFix" />
      <feColorMatrix in="SourceAlpha" type="matrix" values="0 0 0 0 0 0 0 0 0 0 0 0 0 0 0 0 0 0 127 0" result="hardAlpha" />
      <feOffset dx="1" dy="1" />
      <feComposite in2="hardAlpha" operator="out" />
      <feColorMatrix type="matrix" values="0 0 0 0 0 0 0 0 0 0 0 0 0 0 0 0 0 0 0.1 0" />
      <feBlend mode="normal" in2="BackgroundImageFix" result="effect1_dropShadow_1_2" />
      <feBlend mode="normal" in="SourceGraphic" in2="effect1_dropShadow_1_2" result="shape" />
    </filter>
    <filter id="filter11_i_1_2" x="329.472" y="461.108" width="521.056" height="147.13" filterUnits="userSpaceOnUse" color-interpolation-filters="sRGB">
      <feFlood flood-opacity="0" result="BackgroundImageFix" />
      <feBlend mode="normal" in="SourceGraphic" in2="BackgroundImageFix" result="shape" />
      <feColorMatrix in="SourceAlpha" type="matrix" values="0 0 0 0 0 0 0 0 0 0 0 0 0 0 0 0 0 0 127 0" result="hardAlpha" />
      <feOffset dx="1" />
      <feGaussianBlur stdDeviation="2" />
      <feComposite in2="hardAlpha" operator="arithmetic" k2="-1" k3="1" />
      <feColorMatrix type="matrix" values="0 0 0 0 0 0 0 0 0 0 0 0 0 0 0 0 0 0 0.25 0" />
      <feBlend mode="normal" in2="shape" result="effect1_innerShadow_1_2" />
    </filter>
    <filter id="filter12_i_1_2" x="290.141" y="257.165" width="590.978" height="45.158" filterUnits="userSpaceOnUse" color-interpolation-filters="sRGB">
      <feFlood flood-opacity="0" result="BackgroundImageFix" />
      <feBlend mode="normal" in="SourceGraphic" in2="BackgroundImageFix" result="shape" />
      <feColorMatrix in="SourceAlpha" type="matrix" values="0 0 0 0 0 0 0 0 0 0 0 0 0 0 0 0 0 0 127 0" result="hardAlpha" />
      <feOffset dx="1" />
      <feGaussianBlur stdDeviation="2" />
      <feComposite in2="hardAlpha" operator="arithmetic" k2="-1" k3="1" />
      <feColorMatrix type="matrix" values="0 0 0 0 0 0 0 0 0 0 0 0 0 0 0 0 0 0 0.1 0" />
      <feBlend mode="normal" in2="shape" result="effect1_innerShadow_1_2" />
    </filter>
    <clipPath id="clip0_1_2">
      <rect width="1179" height="796" fill="white" />
    </clipPath>
  </defs>
</svg>