<svg width="713" height="413" viewBox="0 0 713 413" fill="none" xmlns="http://www.w3.org/2000/svg">
<g filter="url(#filter0_d_5_65)">
<path d="M4 13C4 7.47716 8.47715 3 14 3H243C248.523 3 253 7.47715 253 13V397C253 402.523 248.523 407 243 407H14C8.47716 407 4 402.523 4 397V13Z" fill="#F1F5F9"/>
</g>
<g filter="url(#filter1_i_5_65)">
<path d="M16.2459 25.0618C16.2459 19.539 20.7231 15.0618 26.2459 15.0618H233.816C239.338 15.0618 243.816 19.539 243.816 25.0618V316.659C243.816 322.182 239.338 326.659 233.816 326.659H26.2459C20.7231 326.659 16.2459 322.182 16.2459 316.659V25.0618Z" fill="#8EB8FD"/>
</g>
<g filter="url(#filter2_d_5_65)">
<rect x="104.189" y="338.958" width="51.568" height="49.614" rx="20" fill="#475569"/>
</g>
<g filter="url(#filter3_d_5_65)">
<path d="M16.2459 25.0618C16.2459 19.539 20.7231 15.0618 26.2459 15.0618H233.816C239.338 15.0618 243.816 19.539 243.816 25.0618V85.4225H16.2459V25.0618Z" fill="#3B82F6"/>
</g>
<g filter="url(#filter4_d_5_65)">
<rect x="28.4918" y="29.134" width="166.34" height="27.1391" rx="13.5696" fill="#F1F5F9"/>
</g>
<rect width="100.008" height="14.0721" rx="7.03607" transform="matrix(1 0 0 -1 36.6557 49.237)" fill="#475569"/>
<rect width="100.008" height="14.0721" rx="7.03607" transform="matrix(1 0 0 -1 36.6557 49.237)" fill="#475569"/>
<rect width="100.008" height="14.0721" rx="7.03607" transform="matrix(1 0 0 -1 36.6557 49.237)" fill="#475569"/>
<rect width="42.8607" height="14.0721" rx="7.03607" transform="matrix(1 0 0 -1 143.807 49.237)" fill="#475569"/>
<rect width="42.8607" height="14.0721" rx="7.03607" transform="matrix(1 0 0 -1 143.807 49.237)" fill="#475569"/>
<rect width="42.8607" height="14.0721" rx="7.03607" transform="matrix(1 0 0 -1 143.807 49.237)" fill="#475569"/>
<circle cx="130.5" cy="196.5" r="55.5" stroke="#3B82F6" stroke-width="10"/>
<line x1="102.485" y1="188.515" x2="132.485" y2="218.515" stroke="#75A9FF" stroke-width="24"/>
<line x1="115.515" y1="218.515" x2="158.515" y2="175.515" stroke="#75A9FF" stroke-width="24"/>
<g filter="url(#filter5_d_5_65)">
<rect x="432" y="56" width="277" height="351" rx="20" fill="white"/>
</g>
<g filter="url(#filter6_d_5_65)">
<rect x="348" y="3" width="220" height="348" rx="10" fill="#F1F5F9"/>
</g>
<rect x="485" y="3" width="63" height="348" fill="#475569"/>
<g filter="url(#filter7_d_5_65)">
<rect x="517" y="56" width="192" height="351" rx="20" fill="#89B6FF"/>
</g>
<rect x="533" y="69" width="160" height="115" rx="20" fill="#475569"/>
<rect x="533" y="197" width="160" height="197" rx="10" fill="#3B82F6"/>
<rect x="544" y="207" width="138" height="146" rx="5" fill="white"/>
<rect x="544" y="361" width="40" height="22" rx="5" fill="#F1F5F9"/>
<rect x="642" y="361" width="40" height="22" rx="5" fill="#F1F5F9"/>
<rect x="593" y="361" width="40" height="22" rx="5" fill="#F1F5F9"/>
<rect x="550" y="215" width="37" height="41" rx="5" fill="#475569"/>
<rect x="639" y="215" width="37" height="41" rx="5" fill="#475569"/>
<rect x="594" y="215" width="38" height="41" rx="5" fill="#475569"/>
<rect x="550" y="260" width="37" height="41" rx="5" fill="#475569"/>
<rect x="639" y="260" width="37" height="41" rx="5" fill="#475569"/>
<rect x="594" y="260" width="38" height="41" rx="5" fill="#475569"/>
<rect x="550" y="305" width="37" height="41" rx="5" fill="#475569"/>
<rect x="639" y="305" width="37" height="41" rx="5" fill="#475569"/>
<rect x="594" y="305" width="38" height="41" rx="5" fill="#475569"/>
<circle cx="564" cy="372" r="5.5" stroke="#475569" stroke-width="3"/>
<line x1="605.768" y1="369.508" x2="613.328" y2="377.068" stroke="#22C55E" stroke-width="5"/>
<line x1="609.792" y1="377.068" x2="620.628" y2="366.232" stroke="#22C55E" stroke-width="5"/>
<line x1="583.839" y1="122.414" x2="614.422" y2="152.997" stroke="#22C55E" stroke-width="25"/>
<line x1="596.744" y1="152.997" x2="640.58" y2="109.161" stroke="#22C55E" stroke-width="25"/>
<line x1="668.081" y1="366.061" x2="656.061" y2="378.081" stroke="#EF4444" stroke-width="3"/>
<line x1="656.061" y1="366.061" x2="668.081" y2="378.081" stroke="#EF4444" stroke-width="3"/>
<defs>
<filter id="filter0_d_5_65" x="0" y="1" width="257" height="412" filterUnits="userSpaceOnUse" color-interpolation-filters="sRGB">
<feFlood flood-opacity="0" result="BackgroundImageFix"/>
<feColorMatrix in="SourceAlpha" type="matrix" values="0 0 0 0 0 0 0 0 0 0 0 0 0 0 0 0 0 0 127 0" result="hardAlpha"/>
<feOffset dy="2"/>
<feGaussianBlur stdDeviation="2"/>
<feComposite in2="hardAlpha" operator="out"/>
<feColorMatrix type="matrix" values="0 0 0 0 0 0 0 0 0 0 0 0 0 0 0 0 0 0 0.1 0"/>
<feBlend mode="normal" in2="BackgroundImageFix" result="effect1_dropShadow_5_65"/>
<feBlend mode="normal" in="SourceGraphic" in2="effect1_dropShadow_5_65" result="shape"/>
</filter>
<filter id="filter1_i_5_65" x="16.2459" y="15.0618" width="228.57" height="312.597" filterUnits="userSpaceOnUse" color-interpolation-filters="sRGB">
<feFlood flood-opacity="0" result="BackgroundImageFix"/>
<feBlend mode="normal" in="SourceGraphic" in2="BackgroundImageFix" result="shape"/>
<feColorMatrix in="SourceAlpha" type="matrix" values="0 0 0 0 0 0 0 0 0 0 0 0 0 0 0 0 0 0 127 0" result="hardAlpha"/>
<feOffset dx="1" dy="1"/>
<feGaussianBlur stdDeviation="2"/>
<feComposite in2="hardAlpha" operator="arithmetic" k2="-1" k3="1"/>
<feColorMatrix type="matrix" values="0 0 0 0 0 0 0 0 0 0 0 0 0 0 0 0 0 0 0.1 0"/>
<feBlend mode="normal" in2="shape" result="effect1_innerShadow_5_65"/>
</filter>
<filter id="filter2_d_5_65" x="102.189" y="337.958" width="55.568" height="53.614" filterUnits="userSpaceOnUse" color-interpolation-filters="sRGB">
<feFlood flood-opacity="0" result="BackgroundImageFix"/>
<feColorMatrix in="SourceAlpha" type="matrix" values="0 0 0 0 0 0 0 0 0 0 0 0 0 0 0 0 0 0 127 0" result="hardAlpha"/>
<feOffset dy="1"/>
<feGaussianBlur stdDeviation="1"/>
<feComposite in2="hardAlpha" operator="out"/>
<feColorMatrix type="matrix" values="0 0 0 0 0 0 0 0 0 0 0 0 0 0 0 0 0 0 0.1 0"/>
<feBlend mode="normal" in2="BackgroundImageFix" result="effect1_dropShadow_5_65"/>
<feBlend mode="normal" in="SourceGraphic" in2="effect1_dropShadow_5_65" result="shape"/>
</filter>
<filter id="filter3_d_5_65" x="13.2459" y="12.0618" width="235.57" height="78.3607" filterUnits="userSpaceOnUse" color-interpolation-filters="sRGB">
<feFlood flood-opacity="0" result="BackgroundImageFix"/>
<feColorMatrix in="SourceAlpha" type="matrix" values="0 0 0 0 0 0 0 0 0 0 0 0 0 0 0 0 0 0 127 0" result="hardAlpha"/>
<feOffset dx="1" dy="1"/>
<feGaussianBlur stdDeviation="2"/>
<feComposite in2="hardAlpha" operator="out"/>
<feColorMatrix type="matrix" values="0 0 0 0 0 0 0 0 0 0 0 0 0 0 0 0 0 0 0.1 0"/>
<feBlend mode="normal" in2="BackgroundImageFix" result="effect1_dropShadow_5_65"/>
<feBlend mode="normal" in="SourceGraphic" in2="effect1_dropShadow_5_65" result="shape"/>
</filter>
<filter id="filter4_d_5_65" x="24.4918" y="26.134" width="174.34" height="35.1391" filterUnits="userSpaceOnUse" color-interpolation-filters="sRGB">
<feFlood flood-opacity="0" result="BackgroundImageFix"/>
<feColorMatrix in="SourceAlpha" type="matrix" values="0 0 0 0 0 0 0 0 0 0 0 0 0 0 0 0 0 0 127 0" result="hardAlpha"/>
<feOffset dy="1"/>
<feGaussianBlur stdDeviation="2"/>
<feComposite in2="hardAlpha" operator="out"/>
<feColorMatrix type="matrix" values="0 0 0 0 0 0 0 0 0 0 0 0 0 0 0 0 0 0 0.1 0"/>
<feBlend mode="normal" in2="BackgroundImageFix" result="effect1_dropShadow_5_65"/>
<feBlend mode="normal" in="SourceGraphic" in2="effect1_dropShadow_5_65" result="shape"/>
</filter>
<filter id="filter5_d_5_65" x="428" y="53" width="285" height="359" filterUnits="userSpaceOnUse" color-interpolation-filters="sRGB">
<feFlood flood-opacity="0" result="BackgroundImageFix"/>
<feColorMatrix in="SourceAlpha" type="matrix" values="0 0 0 0 0 0 0 0 0 0 0 0 0 0 0 0 0 0 127 0" result="hardAlpha"/>
<feOffset dy="1"/>
<feGaussianBlur stdDeviation="2"/>
<feComposite in2="hardAlpha" operator="out"/>
<feColorMatrix type="matrix" values="0 0 0 0 0 0 0 0 0 0 0 0 0 0 0 0 0 0 0.1 0"/>
<feBlend mode="normal" in2="BackgroundImageFix" result="effect1_dropShadow_5_65"/>
<feBlend mode="normal" in="SourceGraphic" in2="effect1_dropShadow_5_65" result="shape"/>
</filter>
<filter id="filter6_d_5_65" x="344" y="0" width="228" height="356" filterUnits="userSpaceOnUse" color-interpolation-filters="sRGB">
<feFlood flood-opacity="0" result="BackgroundImageFix"/>
<feColorMatrix in="SourceAlpha" type="matrix" values="0 0 0 0 0 0 0 0 0 0 0 0 0 0 0 0 0 0 127 0" result="hardAlpha"/>
<feOffset dy="1"/>
<feGaussianBlur stdDeviation="2"/>
<feComposite in2="hardAlpha" operator="out"/>
<feColorMatrix type="matrix" values="0 0 0 0 0 0 0 0 0 0 0 0 0 0 0 0 0 0 0.1 0"/>
<feBlend mode="normal" in2="BackgroundImageFix" result="effect1_dropShadow_5_65"/>
<feBlend mode="normal" in="SourceGraphic" in2="effect1_dropShadow_5_65" result="shape"/>
</filter>
<filter id="filter7_d_5_65" x="513" y="53" width="200" height="359" filterUnits="userSpaceOnUse" color-interpolation-filters="sRGB">
<feFlood flood-opacity="0" result="BackgroundImageFix"/>
<feColorMatrix in="SourceAlpha" type="matrix" values="0 0 0 0 0 0 0 0 0 0 0 0 0 0 0 0 0 0 127 0" result="hardAlpha"/>
<feOffset dy="1"/>
<feGaussianBlur stdDeviation="2"/>
<feComposite in2="hardAlpha" operator="out"/>
<feColorMatrix type="matrix" values="0 0 0 0 0 0 0 0 0 0 0 0 0 0 0 0 0 0 0.1 0"/>
<feBlend mode="normal" in2="BackgroundImageFix" result="effect1_dropShadow_5_65"/>
<feBlend mode="normal" in="SourceGraphic" in2="effect1_dropShadow_5_65" result="shape"/>
</filter>
</defs>
</svg>
