<svg width="96" height="96" viewBox="0 0 96 96" fill="none" xmlns="http://www.w3.org/2000/svg">
<g clip-path="url(#clip0_101_4)">
<g filter="url(#filter0_d_101_4)">
<path d="M7.00005 86.001L8.44386 15.5675L64.2714 88.9729H11.36L7.00005 86.001Z" fill="#26477C"/>
<path d="M11.4324 9.73333H84C86.7614 9.73333 89 11.9719 89 14.7333V59C89 75.5685 75.5685 89 59 89H11.4324V9.73333Z" fill="white"/>
<path d="M7.00005 47.3896H85.4791V55.9434C85.4791 72.5119 72.0476 85.9434 55.4791 85.9434H7.00005V47.3896Z" fill="#6CA0F4"/>
<path d="M7 12C7 9.23858 9.23858 7 12 7H80.4817C83.2432 7 85.4818 9.23858 85.4818 12V19.5733H7V12Z" fill="#2959A7"/>
<ellipse cx="66.2027" cy="67.1067" rx="7.2027" ry="7.10667" fill="white"/>
<rect width="29.219" height="30.4518" transform="matrix(0.93395 -0.357404 0.400175 0.916439 7.17732 34.88)" fill="#E2E8F0"/>
<rect width="24.6417" height="30.1253" transform="matrix(0.873512 0.486803 -0.536602 0.843836 44.0276 22.4514)" fill="white"/>
<path d="M17.9874 7.8185L55.4481 28.6951L45.192 44.8233L7.73137 23.9467L17.9874 7.8185Z" fill="#E2E8F0"/>
<path d="M53.1052 28.8654L16.2051 45.58L7.57832 28.8895L44.4785 12.1749L53.1052 28.8654Z" fill="white"/>
<path d="M7.00005 19.2393H85.4791V47.3897H7.00005V19.2393Z" fill="#3B82F6"/>
</g>
</g>
<defs>
<filter id="filter0_d_101_4" x="7" y="7" width="90" height="90" filterUnits="userSpaceOnUse" color-interpolation-filters="sRGB">
<feFlood flood-opacity="0" result="BackgroundImageFix"/>
<feColorMatrix in="SourceAlpha" type="matrix" values="0 0 0 0 0 0 0 0 0 0 0 0 0 0 0 0 0 0 127 0" result="hardAlpha"/>
<feOffset dx="4" dy="4"/>
<feGaussianBlur stdDeviation="2"/>
<feComposite in2="hardAlpha" operator="out"/>
<feColorMatrix type="matrix" values="0 0 0 0 0 0 0 0 0 0 0 0 0 0 0 0 0 0 0.25 0"/>
<feBlend mode="normal" in2="BackgroundImageFix" result="effect1_dropShadow_101_4"/>
<feBlend mode="normal" in="SourceGraphic" in2="effect1_dropShadow_101_4" result="shape"/>
</filter>
<clipPath id="clip0_101_4">
<rect width="96" height="96" fill="white"/>
</clipPath>
</defs>
</svg>
