<svg width="159" height="160" viewBox="0 0 159 160" fill="none" xmlns="http://www.w3.org/2000/svg">
<g clip-path="url(#clip0_101_4)">
<g filter="url(#filter0_d_101_4)">
<path d="M5.00001 149.514L7.60592 20.6723L108.368 154.95H12.8692L5.00001 149.514Z" fill="#26477C"/>
<path d="M13 10H148C150.761 10 153 12.2386 153 15V125C153 141.569 139.569 155 123 155H13V10Z" fill="white"/>
<path d="M5.00001 78.8835H146.645V119.409C146.645 135.977 133.214 149.409 116.645 149.409H5.00001V78.8835Z" fill="#6CA0F4"/>
<path d="M5 10C5 7.23858 7.23858 5 10 5H141.65C144.411 5 146.65 7.23858 146.65 10V28H5V10Z" fill="#2959A7"/>
<circle cx="117" cy="120" r="13" fill="white"/>
<rect width="52.8283" height="55.5863" transform="matrix(0.932331 -0.361606 0.395679 0.918389 5.32004 56)" fill="#E2E8F0"/>
<rect width="44.6185" height="54.8967" transform="matrix(0.870709 0.491798 -0.531478 0.847072 71.8303 33.2648)" fill="white"/>
<path d="M24.8309 6.49725L92.4429 44.6862L73.932 74.1889L6.32004 36L24.8309 6.49725Z" fill="#E2E8F0"/>
<path d="M88.2143 44.9977L21.614 75.5732L6.0438 45.0419L72.6441 14.4664L88.2143 44.9977Z" fill="white"/>
<path d="M5.00001 27.3889H146.645V78.8835H5.00001V27.3889Z" fill="#3B82F6"/>
</g>
</g>
<defs>
<filter id="filter0_d_101_4" x="5" y="5" width="156" height="158" filterUnits="userSpaceOnUse" color-interpolation-filters="sRGB">
<feFlood flood-opacity="0" result="BackgroundImageFix"/>
<feColorMatrix in="SourceAlpha" type="matrix" values="0 0 0 0 0 0 0 0 0 0 0 0 0 0 0 0 0 0 127 0" result="hardAlpha"/>
<feOffset dx="4" dy="4"/>
<feGaussianBlur stdDeviation="2"/>
<feComposite in2="hardAlpha" operator="out"/>
<feColorMatrix type="matrix" values="0 0 0 0 0 0 0 0 0 0 0 0 0 0 0 0 0 0 0.25 0"/>
<feBlend mode="normal" in2="BackgroundImageFix" result="effect1_dropShadow_101_4"/>
<feBlend mode="normal" in="SourceGraphic" in2="effect1_dropShadow_101_4" result="shape"/>
</filter>
<clipPath id="clip0_101_4">
<rect width="158.025" height="160" fill="white"/>
</clipPath>
</defs>
</svg>
