<svg width="698" height="419" viewBox="0 0 698 419" fill="none" xmlns="http://www.w3.org/2000/svg">
<g clip-path="url(#clip0_1_4)">
<rect width="698" height="419" transform="matrix(-1 0 0 1 698 0)" fill="#3B82F6" fill-opacity="0.9"/>
<g opacity="0.6" filter="url(#filter0_i_1_4)">
<path d="M781.649 781.61C708.002 781.61 648.298 721.907 648.298 648.26V536.226V412.333C648.298 301.876 558.755 212.333 448.298 212.333H359.816C284.061 212.333 222.649 150.922 222.649 75.1666V75.1666C222.649 -0.588417 161.238 -62 85.4827 -62H-540.711V456.817V971.369H915V914.961C915 841.314 855.297 781.61 781.649 781.61V781.61Z" fill="#2563EB"/>
</g>
<g opacity="0.6" filter="url(#filter1_i_1_4)">
<path d="M450.487 591.657C401.391 591.657 360.73 551.857 360.73 502.762V502.762V449.998C360.73 393.689 316.796 347.162 260.58 343.936V343.936C204.364 340.71 160.429 294.183 160.429 237.874V226.013C160.429 160.402 107.241 107.214 41.631 107.214H-100.292C-143.952 107.214 -179.346 71.8209 -179.346 28.1608V28.1608C-179.346 -15.4993 -214.739 -50.8928 -258.399 -50.8928H-313.122C-356.783 -50.8928 -392.176 -86.2863 -392.176 -129.946V-129.946C-392.176 -173.607 -427.57 -209 -471.23 -209H-645V365.137V724H542V682.292C542 632.235 500.543 591.657 450.487 591.657V591.657Z" fill="#60A5FA"/>
</g>
</g>
<defs>
<filter id="filter0_i_1_4" x="-540.711" y="-62" width="1459.71" height="1037.37" filterUnits="userSpaceOnUse" color-interpolation-filters="sRGB">
<feFlood flood-opacity="0" result="BackgroundImageFix"/>
<feBlend mode="normal" in="SourceGraphic" in2="BackgroundImageFix" result="shape"/>
<feColorMatrix in="SourceAlpha" type="matrix" values="0 0 0 0 0 0 0 0 0 0 0 0 0 0 0 0 0 0 127 0" result="hardAlpha"/>
<feOffset dx="4" dy="4"/>
<feGaussianBlur stdDeviation="25"/>
<feComposite in2="hardAlpha" operator="arithmetic" k2="-1" k3="1"/>
<feColorMatrix type="matrix" values="0 0 0 0 0 0 0 0 0 0 0 0 0 0 0 0 0 0 0.25 0"/>
<feBlend mode="normal" in2="shape" result="effect1_innerShadow_1_4"/>
</filter>
<filter id="filter1_i_1_4" x="-645" y="-209" width="1191" height="937" filterUnits="userSpaceOnUse" color-interpolation-filters="sRGB">
<feFlood flood-opacity="0" result="BackgroundImageFix"/>
<feBlend mode="normal" in="SourceGraphic" in2="BackgroundImageFix" result="shape"/>
<feColorMatrix in="SourceAlpha" type="matrix" values="0 0 0 0 0 0 0 0 0 0 0 0 0 0 0 0 0 0 127 0" result="hardAlpha"/>
<feOffset dx="4" dy="4"/>
<feGaussianBlur stdDeviation="25"/>
<feComposite in2="hardAlpha" operator="arithmetic" k2="-1" k3="1"/>
<feColorMatrix type="matrix" values="0 0 0 0 0 0 0 0 0 0 0 0 0 0 0 0 0 0 0.25 0"/>
<feBlend mode="normal" in2="shape" result="effect1_innerShadow_1_4"/>
</filter>
<clipPath id="clip0_1_4">
<rect width="698" height="419" fill="white" transform="matrix(-1 0 0 1 698 0)"/>
</clipPath>
</defs>
</svg>
